<svg width="34" height="12" viewBox="0 0 34 12" fill="none" xmlns="http://www.w3.org/2000/svg">
<path d="M9.97476 11.0003L11.7924 0.334443H14.6997L12.8807 11.0003H9.97476ZM23.3839 0.564367C22.808 0.348282 21.9053 0.116398 20.7783 0.116398C17.9056 0.116398 15.8821 1.56295 15.8649 3.63624C15.8486 5.16888 17.3095 6.02384 18.4122 6.53403C19.5439 7.05681 19.9242 7.3902 19.9189 7.85707C19.9117 8.57196 19.0152 8.89859 18.1796 8.89859C17.016 8.89859 16.3978 8.73694 15.4431 8.33871L15.0684 8.16926L14.6604 10.5569C15.3394 10.8546 16.5951 11.1126 17.8988 11.1259C20.9548 11.1259 22.9386 9.69591 22.9613 7.48189C22.9721 6.26859 22.1976 5.34524 20.5203 4.58399C19.5042 4.09064 18.8819 3.76133 18.8885 3.26177C18.8885 2.81843 19.4152 2.34431 20.5534 2.34431C21.504 2.3296 22.1928 2.53691 22.7293 2.75294L22.9898 2.87608L23.3839 0.564367ZM30.8651 0.33428H28.6186C27.9227 0.33428 27.4018 0.524266 27.0962 1.21878L22.7787 10.9932H25.8315C25.8315 10.9932 26.3306 9.67891 26.4435 9.39042C26.7772 9.39042 29.7428 9.395 30.1668 9.395C30.2538 9.76838 30.5204 10.9932 30.5204 10.9932H33.2181L30.8651 0.333953V0.33428ZM27.3008 7.22162C27.5412 6.6071 28.4592 4.24009 28.4592 4.24009C28.4419 4.26853 28.6978 3.62256 28.8446 3.2221L29.041 4.14174C29.041 4.14174 29.5978 6.68773 29.7141 7.22162H27.3008ZM7.50674 0.33428L4.66049 7.60792L4.35717 6.12976C3.82731 4.42588 2.17644 2.57984 0.330902 1.65563L2.93339 10.9833L6.00935 10.9798L10.5862 0.334171H7.50674" fill="white"/>
</svg>
