<svg width="43" height="30" viewBox="0 0 43 30" fill="none" xmlns="http://www.w3.org/2000/svg">
<path d="M42.1596 8.15955C30.3951 -2.72184 12.0978 -2.71786 0.337933 8.15955C-0.104309 8.56859 -0.112941 9.26117 0.314692 9.68548L2.58832 11.9412C2.99603 12.3462 3.65209 12.3549 4.07574 11.9664C13.7652 3.08971 28.731 3.08772 38.4225 11.9664C38.8461 12.3549 39.5022 12.3456 39.9099 11.9412L42.1835 9.68548C42.6105 9.26117 42.6019 8.56859 42.1596 8.15955ZM21.2488 21.2488C18.9014 21.2488 16.999 23.1513 16.999 25.4986C16.999 27.8459 18.9014 29.7484 21.2488 29.7484C23.5961 29.7484 25.4985 27.8459 25.4985 25.4986C25.4985 23.1513 23.5961 21.2488 21.2488 21.2488ZM34.7066 15.6982C27.053 8.92982 15.4359 8.93713 7.79096 15.6982C7.33278 16.1033 7.31817 16.8065 7.75311 17.2355L10.04 19.4925C10.4384 19.8856 11.0799 19.9121 11.5042 19.5456C17.0787 14.7268 25.4315 14.7374 30.9927 19.5456C31.417 19.9121 32.0585 19.8863 32.4569 19.4925L34.7438 17.2355C35.1794 16.8065 35.1641 16.1026 34.7066 15.6982Z" fill="white"/>
</svg>
