<svg width="29" height="36" viewBox="0 0 29 36" fill="none" xmlns="http://www.w3.org/2000/svg">
<path d="M14.2576 1.0425C14.3125 1.36482 15.3617 7.52323 15.3617 9.8755C15.3617 13.4622 13.4552 16.0202 10.6366 17.0489L11.5213 33.3776C11.5693 34.3171 10.8218 35.1126 9.8754 35.1126H5.48633C4.5468 35.1126 3.79243 34.324 3.84043 33.3776L4.7251 17.0489C1.89964 16.0202 0 13.4553 0 9.8755C0 7.51637 1.04926 1.36482 1.10412 1.0425C1.32358 -0.349656 4.21076 -0.37023 4.38907 1.11794V10.8013C4.47822 11.0345 5.42461 11.0208 5.48633 10.8013C5.58234 9.06626 6.02811 1.2551 6.03497 1.07679C6.26128 -0.349656 9.10045 -0.349656 9.31991 1.07679C9.33362 1.26195 9.77253 9.06626 9.86854 10.8013C9.93026 11.0208 10.8835 11.0345 10.9658 10.8013V1.11794C11.1441 -0.363372 14.0382 -0.349656 14.2576 1.0425ZM22.4322 20.6356L21.4036 33.3296C21.3213 34.2897 22.0825 35.1126 23.0426 35.1126H26.883C27.7951 35.1126 28.5289 34.3788 28.5289 33.4667V1.646C28.5289 0.740753 27.7951 9.80171e-05 26.883 9.80171e-05C21.2253 9.80171e-05 11.6996 12.2415 22.4322 20.6356Z" fill="white"/>
</svg>
