<svg width="42" height="30" viewBox="0 0 42 30" fill="none" xmlns="http://www.w3.org/2000/svg">
<path d="M7.62132 29.931V27.9379C7.62132 27.1735 7.11668 26.6754 6.28838 26.6754C5.85335 26.6754 5.38787 26.8085 5.06334 27.2369C4.81102 26.8711 4.4543 26.6754 3.91051 26.6754C3.70833 26.6673 3.50713 26.7056 3.32493 26.7868C3.14273 26.868 2.9852 26.9895 2.86644 27.1406V26.7396H2.1817V29.9286H2.86644V28.1039C2.86644 27.5424 3.22664 27.2737 3.73128 27.2737C4.23591 27.2737 4.5239 27.5729 4.5239 28.1039V29.931H5.20864V28.1039C5.20864 27.5424 5.56884 27.2737 6.07348 27.2737C6.57811 27.2737 6.8661 27.5729 6.8661 28.1039V29.931H7.62132ZM18.8642 26.7749H17.6026V25.8124H16.9196V26.7749H16.1992V27.3363H16.9196V28.8346C16.9196 29.5653 17.2076 29.9976 18.0725 29.9976C18.4001 29.9913 18.7212 29.9115 19.0078 29.765L18.7911 29.2035C18.5967 29.3156 18.3713 29.3732 18.1421 29.3696C17.7819 29.3696 17.6018 29.1699 17.6018 28.8378V27.3106H18.8634V26.7789L18.8642 26.7749ZM25.2783 26.6754C25.0918 26.6716 24.9074 26.7124 24.7432 26.794C24.5789 26.8755 24.4404 26.9949 24.3413 27.1406V26.7396H23.6565V29.9286H24.3413V28.1376C24.3413 27.6058 24.6292 27.2737 25.0982 27.2737C25.2565 27.2797 25.4135 27.302 25.5663 27.3403L25.7829 26.742C25.6177 26.7036 25.4486 26.6813 25.2783 26.6754ZM15.585 27.0075C15.2248 26.7749 14.7201 26.6754 14.1798 26.6754C13.315 26.6754 12.7747 27.0411 12.7747 27.6724C12.7747 28.2042 13.1714 28.5025 13.9275 28.6028L14.2877 28.6357C14.6845 28.7022 14.9368 28.8354 14.9368 29.0014C14.9368 29.234 14.6488 29.4025 14.1076 29.4025C13.6944 29.4103 13.2897 29.2937 12.9548 29.0704L12.5946 29.5685C13.0992 29.9005 13.7117 29.9695 14.0737 29.9695C15.0829 29.9695 15.6233 29.538 15.6233 28.9397C15.6233 28.3782 15.1882 28.1095 14.4339 28.0092L14.0737 27.9764C13.7491 27.9435 13.4646 27.8432 13.4646 27.6443C13.4646 27.4117 13.7526 27.2433 14.1494 27.2433C14.5844 27.2433 15.0142 27.4093 15.2309 27.5088L15.585 27.0075ZM26.0353 28.3365C26.0353 29.299 26.72 29.9976 27.8372 29.9976C28.3418 29.9976 28.702 29.8981 29.0622 29.6318L28.702 29.1338C28.447 29.3242 28.1296 29.4296 27.8015 29.4329C27.1924 29.4329 26.72 29.0014 26.72 28.3702C26.72 27.7389 27.1863 27.3106 27.8015 27.3106C28.1296 27.314 28.447 27.4194 28.702 27.6098L29.0622 27.1117C28.702 26.8462 28.3418 26.746 27.8372 26.746C26.7557 26.6794 26.0353 27.3772 26.0353 28.3405V28.3365ZM21.2064 26.6754C20.1972 26.6754 19.5124 27.3395 19.5124 28.3365C19.5124 29.3335 20.2328 29.9976 21.2778 29.9976C21.7861 30.0075 22.2826 29.855 22.6829 29.5661L22.3227 29.1009C22.0332 29.3077 21.6796 29.424 21.3134 29.4329C20.8454 29.4329 20.3407 29.1674 20.2694 28.6028H22.8282V28.3373C22.8282 27.3403 22.1792 26.6762 21.2064 26.6762V26.6754ZM21.1708 27.2737C21.6754 27.2737 22.0356 27.5729 22.0713 28.071H20.198C20.3059 27.6058 20.6331 27.2737 21.1708 27.2737ZM11.8376 28.3365V26.742H11.1529V27.143C10.9006 26.8438 10.5438 26.6778 10.0357 26.6778C9.063 26.6778 8.34172 27.3756 8.34172 28.3389C8.34172 29.3022 9.06213 30 10.0357 30C10.5404 30 10.9006 29.834 11.1529 29.5348V29.9358H11.8376V28.3365ZM9.063 28.3365C9.063 27.7381 9.45975 27.2737 10.1445 27.2737C10.7936 27.2737 11.1886 27.739 11.1886 28.3365C11.1886 28.9677 10.7535 29.3992 10.1445 29.3992C9.45975 29.4321 9.063 28.934 9.063 28.3365ZM35.6938 26.6754C35.5073 26.6716 35.3229 26.7124 35.1586 26.794C34.9944 26.8755 34.8559 26.9949 34.7567 27.1406V26.7396H34.072V29.9286H34.7559V28.1376C34.7559 27.6058 35.0439 27.2737 35.5128 27.2737C35.6711 27.2797 35.8281 27.302 35.9809 27.3403L36.1976 26.742C36.0323 26.7036 35.8632 26.6813 35.6929 26.6754H35.6938ZM33.0271 28.3365V26.742H32.3423V27.143C32.09 26.8438 31.7333 26.6778 31.2252 26.6778C30.2524 26.6778 29.5312 27.3756 29.5312 28.3389C29.5312 29.3022 30.2516 30 31.2252 30C31.7298 30 32.09 29.834 32.3423 29.5348V29.9358H33.0271V28.3365ZM30.2524 28.3365C30.2524 27.7381 30.6492 27.2737 31.3339 27.2737C31.983 27.2737 32.378 27.739 32.378 28.3365C32.378 28.9677 31.943 29.3992 31.3339 29.3992C30.6492 29.4321 30.2524 28.934 30.2524 28.3365ZM39.9823 28.3365V25.4795H39.2976V27.1406C39.0453 26.8414 38.6885 26.6754 38.1804 26.6754C37.2077 26.6754 36.4864 27.3732 36.4864 28.3365C36.4864 29.2998 37.2068 29.9976 38.1804 29.9976C38.6851 29.9976 39.0453 29.8316 39.2976 29.5324V29.9334H39.9823V28.3365ZM37.2077 28.3365C37.2077 27.7381 37.6044 27.2737 38.2892 27.2737C38.9382 27.2737 39.3333 27.739 39.3333 28.3365C39.3333 28.9677 38.8982 29.3992 38.2892 29.3992C37.6036 29.4329 37.2068 28.9348 37.2068 28.3365H37.2077Z" fill="white"/>
<path d="M14.7924 2.55782H27.2969V21.3601H14.7924V2.55782Z" fill="#FF5F00"/>
<path d="M16.0539 11.9589C16.0544 10.1502 16.4987 8.36489 17.3536 6.73684C18.2085 5.10878 19.4519 3.68012 20.9907 2.55782C19.077 1.17081 16.7787 0.308138 14.3583 0.068429C11.9379 -0.17128 9.49325 0.221645 7.30369 1.20229C5.11413 2.18293 3.26805 3.71171 1.97649 5.61389C0.684928 7.51606 0 9.71486 0 11.9589C0 14.203 0.684928 16.4018 1.97649 18.304C3.26805 20.2062 5.11413 21.7349 7.30369 22.7156C9.49325 23.6962 11.9379 24.0892 14.3583 23.8494C16.7787 23.6097 19.077 22.7471 20.9907 21.3601C19.4519 20.2378 18.2085 18.8091 17.3536 17.181C16.4987 15.553 16.0544 13.7677 16.0539 11.9589Z" fill="#EB001B"/>
<path d="M42 11.9592C42.0018 14.2016 41.3189 16.3992 40.0294 18.3007C38.74 20.2022 36.896 21.7307 34.7085 22.7115C32.521 23.6922 30.0782 24.0856 27.6595 23.8467C25.2409 23.6077 22.944 22.7461 21.0316 21.3603C22.5707 20.2383 23.8143 18.8097 24.6693 17.1816C25.5243 15.5534 25.9684 13.768 25.9684 11.9592C25.9684 10.1503 25.5243 8.36489 24.6693 6.73677C23.8143 5.10865 22.5707 3.68005 21.0316 2.55805C22.944 1.17223 25.2409 0.310572 27.6595 0.0716229C30.0782 -0.167326 32.521 0.226081 34.7085 1.20685C36.896 2.18762 38.74 3.71615 40.0294 5.61761C41.3189 7.51908 42.0018 9.71672 42 11.9592Z" fill="#F79E1B"/>
</svg>
