<svg width="41" height="31" viewBox="0 0 41 31" fill="none" xmlns="http://www.w3.org/2000/svg">
<path d="M39.5475 8.85888H34.8119L33.4958 5.56844C32.1432 2.18545 28.9153 0 25.2712 0H15.2259C11.5827 0 8.35395 2.18545 7.0006 5.56844L5.68442 8.85888H0.949669C0.33192 8.85888 -0.121306 9.43945 0.0289783 10.0382L0.503561 11.9366C0.60876 12.3589 0.988427 12.6555 1.42425 12.6555H3.01173C1.94946 13.5834 1.26527 14.932 1.26527 16.4522V20.2489C1.26527 21.5239 1.75251 22.6748 2.53082 23.5654V27.8422C2.53082 29.2398 3.66428 30.3733 5.06193 30.3733H7.59304C8.99068 30.3733 10.1241 29.2398 10.1241 27.8422V25.3111H30.373V27.8422C30.373 29.2398 31.5065 30.3733 32.9041 30.3733H35.4352C36.8329 30.3733 37.9663 29.2398 37.9663 27.8422V23.5654C38.7447 22.6756 39.2319 21.5247 39.2319 20.2489V16.4522C39.2319 14.932 38.5477 13.5834 37.4862 12.6555H39.0737C39.5095 12.6555 39.8892 12.3589 39.9944 11.9366L40.469 10.0382C40.6185 9.43945 40.1652 8.85888 39.5475 8.85888ZM11.7006 7.44858C12.2772 6.00743 13.6732 5.06222 15.2259 5.06222H25.2712C26.8239 5.06222 28.22 6.00743 28.7966 7.44858L30.373 11.39H10.1241L11.7006 7.44858ZM7.59304 20.233C6.07437 20.233 5.06193 19.2238 5.06193 17.7099C5.06193 16.1959 6.07437 15.1867 7.59304 15.1867C9.1117 15.1867 11.3897 17.4575 11.3897 18.9715C11.3897 20.4854 9.1117 20.233 7.59304 20.233ZM32.9041 20.233C31.3855 20.233 29.1075 20.4854 29.1075 18.9715C29.1075 17.4575 31.3855 15.1867 32.9041 15.1867C34.4228 15.1867 35.4352 16.1959 35.4352 17.7099C35.4352 19.2238 34.4228 20.233 32.9041 20.233Z" fill="white"/>
</svg>
